<svg width="1080" height="1080" viewBox="0 0 1080 1080" fill="none" xmlns="http://www.w3.org/2000/svg">
<rect width="1080" height="1080" rx="120" fill="black"/>
<path d="M694.516 366.305C724.333 366.305 750.049 368.909 771.664 374.117C793.409 379.326 811.964 387.724 827.328 399.312C842.823 410.771 854.346 426.005 861.898 445.016C869.581 464.026 873.422 487.008 873.422 513.961C873.422 537.008 870.883 557.06 865.805 574.117C860.727 591.044 853.5 605.107 844.125 616.305C834.75 627.503 822.576 636.487 807.602 643.258C792.628 650.029 776.091 654.781 757.992 657.516C739.893 660.38 718.734 661.812 694.516 661.812H383.578C360.792 661.812 340.544 660.445 322.836 657.711C305.258 654.977 288.852 650.224 273.617 643.453C258.513 636.552 246.013 627.568 236.117 616.5C226.221 605.302 218.474 591.174 212.875 574.117C207.406 556.93 204.672 536.878 204.672 513.961C204.672 487.008 208.448 464.026 216 445.016C223.552 426.005 235.01 410.771 250.375 399.312C265.87 387.724 284.424 379.326 306.039 374.117C327.784 368.909 353.63 366.305 383.578 366.305H694.516ZM694.516 591.695C708.839 591.695 720.948 590.589 730.844 588.375C740.87 586.031 749.724 581.995 757.406 576.266C765.089 570.536 770.753 562.529 774.398 552.242C778.174 541.956 780.062 529.195 780.062 513.961C780.062 498.596 778.24 485.836 774.594 475.68C771.078 465.393 765.479 457.385 757.797 451.656C750.245 445.927 741.456 441.956 731.43 439.742C721.404 437.398 709.099 436.227 694.516 436.227H383.578C369.125 436.227 356.885 437.398 346.859 439.742C336.833 441.956 327.979 445.927 320.297 451.656C312.745 457.385 307.081 465.393 303.305 475.68C299.659 485.836 297.836 498.596 297.836 513.961C297.836 529.326 299.659 542.151 303.305 552.438C307.081 562.594 312.745 570.536 320.297 576.266C327.979 581.995 336.833 586.031 346.859 588.375C356.885 590.589 369.125 591.695 383.578 591.695H694.516Z" fill="white"/>
</svg>
